<svg xmlns="http://www.w3.org/2000/svg" version="1.2" viewBox="0 0 50 50" width="50" height="50">
	<title>icons8-twitter-svg</title>
	<style>
		.s0 { fill: #ffffff } 
	</style>
	<path id="Layer" class="s0" d="m50.1 10.4q-2.8 1.3-5.9 1.7c2.1-1.3 3.7-3.3 4.5-5.7-2 1.1-4.2 2-6.6 2.5-1.8-2-4.5-3.3-7.5-3.3-5.6 0-10.2 4.6-10.2 10.3q0 1.2 0.2 2.3c-8.5-0.4-16.1-4.5-21.2-10.7-0.9 1.5-1.4 3.3-1.4 5.2 0 3.5 1.9 6.7 4.6 8.5-1.7 0-3.3-0.5-4.6-1.3q0 0.1 0 0.2c0 5 3.5 9.1 8.2 10.1q-1.3 0.3-2.7 0.3-1 0-1.9-0.2c1.3 4.1 5.1 7.1 9.6 7.2-3.6 2.7-8 4.4-12.8 4.4q-1.3 0-2.5-0.2c4.6 2.9 10 4.6 15.8 4.6 18.9 0 29.3-15.6 29.3-29.2q0-0.7-0.1-1.3c2-1.5 3.8-3.3 5.2-5.4z"/>
</svg>
